# xmcd
#
# Track frame offsets:
#	150
#	17203
#	37852
#	65988
#
# Disc length: 1117 seconds
#
# Revision: 0
# Processed by: cddbd v1.5.2PL0 Copyright (c) Steve Scherf et al.
# Submitted via: EasyCDDAExtractor 12.0.1.1
#
DISCID=30045b04
DTITLE=Raul Malo - This Is Raul Malo
DYEAR=2010
DGENRE=Americana
TTITLE0=Staying Here
TTITLE1=Cuando Me Enamoro (A Man Without Love) [Spanish Version]
TTITLE2=Lucky One [Live in Austin]
TTITLE3=Moonlight Kiss [Live in Austin]
EXTD=
EXTT0=
EXTT1=
EXTT2=
EXTT3=
PLAYORDER=
